<?xml version="1.0" standalone="no"?>
<!DOCTYPE svg PUBLIC "-//W3C//DTD SVG 20010904//EN"
 "http://www.w3.org/TR/2001/REC-SVG-20010904/DTD/svg10.dtd">
<svg version="1.0" xmlns="http://www.w3.org/2000/svg"
 width="700.000000pt" height="700.000000pt" viewBox="0 0 700.000000 700.000000"
 preserveAspectRatio="xMidYMid meet">
<metadata>
Created by potrace 1.14, written by Peter Selinger 2001-2017
</metadata>
<g transform="translate(0.000000,700.000000) scale(0.100000,-0.100000)"
fill="#000000" stroke="none">
<path d="M1619 6996 c-2 -2 -35 -7 -74 -11 -38 -4 -73 -9 -76 -11 -4 -2 -24
-6 -45 -9 -22 -4 -47 -8 -56 -11 -9 -3 -25 -7 -36 -9 -11 -2 -66 -19 -123 -38
-468 -157 -859 -512 -1057 -962 -41 -93 -96 -257 -105 -310 -3 -16 -10 -51
-16 -77 -6 -26 -14 -76 -18 -110 -10 -80 -10 -3800 -1 -3889 17 -159 82 -382
156 -539 201 -424 557 -749 996 -912 89 -32 250 -75 318 -84 24 -3 68 -9 98
-14 66 -11 3840 -7 3890 3 19 4 69 15 110 23 41 8 82 17 91 19 61 13 247 83
334 126 88 42 288 166 305 188 3 3 23 19 45 36 62 46 211 201 277 288 110 145
204 315 263 477 34 96 82 297 92 386 10 89 10 3810 0 3889 -7 61 -12 90 -23
135 -3 14 -8 39 -11 55 -10 56 -80 260 -117 338 -87 184 -210 360 -353 503
-99 99 -108 107 -208 181 -178 130 -400 236 -609 288 -76 18 -79 19 -146 30
-25 4 -54 10 -65 13 -22 7 -3829 15 -3836 8z m3852 -1599 c70 -34 131 -98 166
-174 75 -163 -4 -372 -168 -447 -56 -26 -89 -32 -250 -41 -104 -6 -108 -7
-218 -31 -236 -52 -439 -181 -616 -394 -131 -158 -250 -350 -441 -713 -59
-111 -121 -229 -139 -262 -55 -103 -130 -246 -182 -345 -28 -52 -63 -117 -79
-145 -15 -27 -40 -71 -54 -97 -71 -131 -223 -361 -314 -473 -126 -155 -297
-313 -436 -404 -30 -20 -57 -38 -60 -41 -3 -3 -25 -16 -50 -29 -25 -13 -65
-34 -90 -48 -58 -31 -207 -87 -303 -113 -78 -21 -99 -26 -152 -35 -16 -3 -41
-7 -55 -10 -61 -12 -114 -16 -251 -22 -132 -5 -152 -4 -210 16 -241 80 -313
387 -134 566 80 80 135 98 340 110 447 26 742 226 1040 706 72 117 174 300
280 504 48 94 91 175 95 180 4 6 35 64 70 130 135 259 176 335 253 470 165
291 288 457 471 640 168 167 288 257 472 348 132 66 331 132 459 153 20 3 47
8 59 10 11 3 53 7 91 10 39 4 72 8 75 11 3 3 66 3 140 1 123 -3 140 -6 191
-31z"/>
</g>
</svg>
